<?xml version="1.0" standalone="no"?>
<!DOCTYPE svg PUBLIC "-//W3C//DTD SVG 20010904//EN"
 "http://www.w3.org/TR/2001/REC-SVG-20010904/DTD/svg10.dtd">
<svg version="1.0" xmlns="http://www.w3.org/2000/svg"
 width="1500.000000pt" height="1500.000000pt" viewBox="0 0 1500.000000 1500.000000"
 preserveAspectRatio="xMidYMid meet">

<g transform="translate(0.000000,1500.000000) scale(0.100000,-0.100000)"
fill="#000" stroke="none">
<path d="M7230 14550 c-1117 -42 -2209 -353 -3180 -905 -1782 -1013 -3036
-2758 -3419 -4760 -88 -456 -124 -844 -124 -1330 0 -486 36 -874 124 -1330
325 -1697 1281 -3225 2669 -4266 1097 -823 2364 -1294 3740 -1389 186 -13 742
-13 930 0 2264 155 4289 1373 5487 3300 603 970 954 2066 1033 3228 13 198 13
716 0 914 -64 933 -293 1795 -699 2623 -769 1569 -2100 2797 -3726 3438 -886
349 -1864 513 -2835 477z m715 -580 c691 -50 1326 -196 1963 -451 212 -84 642
-295 837 -410 459 -269 860 -577 1249 -959 382 -375 660 -714 919 -1118 566
-882 898 -1857 999 -2927 20 -215 17 -943 -5 -1155 -88 -845 -297 -1564 -667
-2295 -330 -653 -705 -1163 -1241 -1690 -416 -409 -827 -721 -1317 -999 -808
-459 -1674 -728 -2627 -818 -220 -21 -945 -17 -1160 5 -849 89 -1562 297
-2305 672 -1322 668 -2397 1812 -2989 3181 -559 1294 -676 2747 -331 4124 417
1662 1505 3107 2995 3979 173 102 503 269 691 350 658 284 1363 457 2089 510
162 12 739 12 900 1z"/>
<path d="M3391 11159 c-66 -13 -142 -60 -184 -115 -123 -160 -69 -393 111
-481 l57 -28 4130 0 4130 0 50 25 c64 31 124 92 156 155 20 42 24 64 24 135
-1 72 -5 93 -28 137 -36 69 -88 120 -156 152 l-56 26 -4095 1 c-2256 1 -4115
-2 -4139 -7z"/>
<path d="M4495 9876 c-134 -42 -215 -146 -223 -286 -8 -138 53 -242 176 -302
l67 -33 2990 0 2990 0 56 26 c114 54 179 149 187 273 8 130 -60 246 -176 303
l-57 28 -2985 2 c-2379 1 -2993 -1 -3025 -11z"/>
<path d="M4478 8595 c-92 -34 -168 -114 -198 -208 -18 -58 -9 -173 18 -229 30
-60 90 -120 150 -150 l47 -23 3010 0 3010 0 50 27 c60 32 114 87 146 148 34
65 34 204 0 272 -29 61 -89 120 -149 150 l-47 23 -3000 2 c-2524 1 -3006 -1
-3037 -12z"/>
<path d="M5717 7329 c-133 -31 -229 -141 -244 -279 -16 -152 79 -291 228 -334
49 -15 230 -16 1824 -14 l1770 3 55 26 c80 37 115 72 152 147 81 164 15 353
-151 431 l-56 26 -1770 2 c-1012 0 -1786 -3 -1808 -8z"/>
<path d="M6653 6041 c-263 -91 -285 -460 -34 -583 l46 -23 824 -3 c930 -3 881
-6 970 74 151 136 141 374 -21 493 -85 62 -63 61 -937 61 -738 -1 -800 -2
-848 -19z"/>
<path d="M6643 4763 c-60 -21 -137 -94 -170 -161 -24 -48 -28 -70 -28 -137 0
-67 4 -89 28 -137 35 -70 101 -131 174 -158 54 -20 69 -20 871 -18 l817 3 57
28 c63 31 115 85 149 156 31 64 32 186 2 252 -31 68 -90 128 -158 161 l-60 28
-820 -1 c-701 0 -826 -3 -862 -16z"/>
<path d="M5709 3496 c-231 -62 -313 -331 -159 -518 18 -21 59 -51 98 -70 l67
-33 1790 0 1790 0 56 26 c117 55 184 160 184 289 0 129 -67 234 -184 289 l-56
26 -1770 2 c-1382 1 -1780 -1 -1816 -11z"/>
</g>
</svg>
